PathFileType	4	(X/Y/Z)	C:\Users\Basilio\Documents\Thesis Gigler\squatting_fais\c3dfiles\077\SLS_front_pre4\markers_experimental.trc
DataRate	CameraRate	NumFrames	NumMarkers	Units	OrigDataRate	OrigDataStartFrame	OrigNumFrames
200.000000	200.000000	4	60	mm	200.000000	198	1586
Frame#	Time	FHD			RBHD			C7			T10			CLAV			LSHO			LUUPA			LMUPA			LDUPA			LLEP			LMEP			LRAD			LUL			LRFIN			RSHO			RUPA1			RMUPA			RDUPA			RLEP			RMEP			RRAD			RUL			RUFIN			LASI			RASI			USACR			LSACR			RSACR			LTHI1			LTHI2			LTHI3			LTHI4			LLFC			LMFC			LTIB1			LTIB2			LTIB3			LTIB4			LLMAL			LHEE			LMT1			LMT2			LMT5			RTHI			RTHI2			RTHI3			RTHI4			RLFC			RMFC			RTIB1			RTIB2			RTIB3			RTIB4			RLMAL			RMMAL			RHEE			RMT1			RMT2			RMT5			LBHD			
		X1	Y1	Z1	X2	Y2	Z2	X3	Y3	Z3	X4	Y4	Z4	X5	Y5	Z5	X6	Y6	Z6	X7	Y7	Z7	X8	Y8	Z8	X9	Y9	Z9	X10	Y10	Z10	X11	Y11	Z11	X12	Y12	Z12	X13	Y13	Z13	X14	Y14	Z14	X15	Y15	Z15	X16	Y16	Z16	X17	Y17	Z17	X18	Y18	Z18	X19	Y19	Z19	X20	Y20	Z20	X21	Y21	Z21	X22	Y22	Z22	X23	Y23	Z23	X24	Y24	Z24	X25	Y25	Z25	X26	Y26	Z26	X27	Y27	Z27	X28	Y28	Z28	X29	Y29	Z29	X30	Y30	Z30	X31	Y31	Z31	X32	Y32	Z32	X33	Y33	Z33	X34	Y34	Z34	X35	Y35	Z35	X36	Y36	Z36	X37	Y37	Z37	X38	Y38	Z38	X39	Y39	Z39	X40	Y40	Z40	X41	Y41	Z41	X42	Y42	Z42	X43	Y43	Z43	X44	Y44	Z44	X45	Y45	Z45	X46	Y46	Z46	X47	Y47	Z47	X48	Y48	Z48	X49	Y49	Z49	X50	Y50	Z50	X51	Y51	Z51	X52	Y52	Z52	X53	Y53	Z53	X54	Y54	Z54	X55	Y55	Z55	X56	Y56	Z56	X57	Y57	Z57	X58	Y58	Z58	X59	Y59	Z59	X60	Y60	Z60	

199	0.99	-164.714599609375	1831.491577148438	-936.4447021484377	-335.2297668457032	1765.752807617188	-859.8916015625002	-413.3698730468751	1623.235229492188	-940.0674438476565	-437.3810119628907	1282.700561523438	-937.5147094726565	-255.331039428711	1558.142333984375	-940.8706665039065	-296.7685852050782	1576.965087890625	-1139.94287109375	-308.0287780761719	1353.122192382813	-1235.545288085938	-267.8553161621094	1330.88720703125	-1218.622436523438	-302.9104309082032	1283.668090820313	-1238.816528320313	-290.2628173828126	1222.31201171875	-1237.675659179688	-344.8879394531251	1209.400756835938	-1187.08447265625	-187.3523864746094	945.4716796875002	-1149.820556640625	-216.2241210937501	935.1705322265627	-1225.217407226563	-141.3001098632813	867.1203613281252	-1169.97607421875	-280.0978088378907	1568.758544921875	-745.9433593750001	-290.0428161621094	1351.125122070313	-641.6846923828126	-248.7859344482422	1331.736694335938	-657.2346801757814	-279.3113403320313	1282.022094726563	-637.8743286132814	-265.0970764160157	1219.109252929688	-639.1747436523439	-311.2759704589844	1197.671264648438	-700.9527587890626	-166.585433959961	945.1692504882815	-681.3843994140626	-195.7029266357422	938.074401855469	-607.0951538085939	-136.4476013183594	855.1812133789065	-660.2980346679689	-257.2200622558594	1066.435302734375	-1070.030517578125	-254.5409698486329	1097.358032226563	-785.962829589844	-451.8824462890626	1178.085571289063	-934.0250244140627	-456.9120483398439	1147.882934570313	-962.6564941406252	-461.1190490722657	1147.208740234375	-907.0069580078127	-334.5079345703126	859.913024902344	-1125.548706054688	-310.4604492187501	780.002868652344	-1124.546264648438	-262.0957336425782	780.1896972656252	-1120.933715820313	-340.3694458007813	730.0565185546876	-1106.745727539063	-316.9826049804688	582.6787109375001	-1086.06005859375	-302.4960021972657	558.5167236328126	-954.1057128906252	-289.7426757812501	357.7359924316407	-1024.409545898438	-323.5153503417969	315.9519958496094	-1096.899536132813	-292.5450134277344	311.7809753417969	-1062.5009765625	-301.1078186035157	232.9892883300782	-1034.217651367188	-362.9768371582032	116.0322799682617	-1079.974243164063	-419.0229492187501	85.96079254150392	-1031.192138671875	-211.0080566406251	56.87607192993165	-1003.443664550781	-204.1183471679688	57.2524757385254	-1045.57666015625	-334.5773620605469	126.9482803344727	-995.7449340820315	-346.7052307128907	760.4683837890626	-734.7017211914064	-310.2997741699219	705.0735473632814	-731.7774047851564	-276.5072326660157	705.1375732421876	-734.8129882812501	-337.1085815429688	629.0628662109376	-747.9119262695314	-330.9583435058594	561.4020385742189	-747.8099365234376	-297.3913269042969	545.5955200195314	-874.1433715820315	-288.7243347167969	421.5960998535157	-765.3959350585939	-357.0104370117188	346.5070800781251	-731.1146240234376	-314.6900634765626	339.3141479492188	-752.1161499023439	-314.6202392578126	294.6317138671876	-792.2576293945315	-393.2251281738282	121.616455078125	-749.2951660156251	-367.3863525390626	126.964584350586	-839.2825927734377	-458.1364746093751	94.3990936279297	-801.8196411132815	-235.7302246093751	62.02581787109376	-797.2839355468752	-240.1131286621094	60.87985610961915	-759.2722778320314	-259.5124206542969	43.18593978881837	-711.2891845703126	-329.6244506835938	1769.060913085938	-1005.089721679688	
200	0.995	-166.3029327392578	1832.237915039063	-935.7720336914065	-337.3999633789063	1765.069946289063	-859.9050903320315	-414.4320678710939	1622.859130859375	-940.1475830078127	-437.6774902343751	1282.655029296875	-937.302429199219	-256.2077636718751	1558.376220703125	-940.7349853515627	-296.7912902832032	1576.995361328125	-1139.447631835938	-305.5057983398438	1353.265747070313	-1235.3369140625	-265.5039672851563	1331.972412109375	-1218.489868164063	-300.1138305664063	1284.208618164063	-1238.86767578125	-286.4978332519532	1222.803955078125	-1237.710571289063	-341.1085815429688	1209.41845703125	-1187.653686523438	-181.8028564453125	946.916442871094	-1149.264282226563	-210.1593170166016	936.2189941406252	-1224.6435546875	-134.8798980712891	868.7268676757815	-1168.6669921875	-280.3694763183594	1568.72119140625	-746.1666870117189	-287.2938842773438	1351.2939453125	-642.1751708984376	-245.9703521728516	1332.33447265625	-657.9695434570314	-275.7242431640626	1282.226928710938	-638.3983154296876	-260.7037353515626	1219.583740234375	-639.5453491210939	-307.0364990234376	1197.615234375	-701.2704467773439	-160.7624816894532	946.3001708984377	-681.6464843750001	-189.0741119384766	939.4715576171877	-606.9782714843751	-130.8141021728516	856.0893554687502	-660.9919433593751	-257.2553405761719	1066.589965820313	-1069.808227539063	-254.7028503417969	1097.35107421875	-785.7302856445315	-452.0814514160157	1178.03857421875	-933.9084472656252	-457.0335083007814	1147.79150390625	-962.5095825195315	-461.2781677246095	1147.094360351563	-906.8076171875002	-336.7837219238282	860.5123291015627	-1126.289184570313	-310.2855529785157	779.9022216796877	-1124.464599609375	-260.6955566406251	780.1130981445315	-1120.12646484375	-339.9871826171876	730.0488891601564	-1106.53759765625	-318.2302856445313	583.2246704101564	-1086.509887695313	-302.1384277343751	558.4979858398439	-954.1151123046877	-289.7658081054688	358.0130004882813	-1024.386840820313	-323.3541870117188	315.9109802246094	-1096.837890625	-292.3546142578126	311.5363464355469	-1062.431640625	-301.0111999511719	232.9766540527344	-1034.224853515625	-363.2095947265626	116.2038726806641	-1079.950927734375	-419.0038146972657	85.94497680664064	-1031.234252929688	-210.9907531738282	56.86656188964845	-1003.4287109375	-204.2069549560547	57.26774215698244	-1045.611450195313	-334.5956420898438	126.9571380615235	-995.7717285156252	-346.7122192382813	760.4696044921876	-734.6529541015626	-310.4545593261719	704.9642333984376	-731.5869140625001	-276.5249023437501	705.1646118164064	-734.6394653320314	-337.1547241210938	629.1166381835939	-747.7777099609376	-330.9818725585938	561.3961181640626	-747.6546020507814	-297.3233947753907	545.6140136718751	-873.971618652344	-288.3424377441407	421.2844848632814	-765.1299438476564	-357.0393676757813	346.5846862792969	-731.0109863281251	-314.6721191406251	339.3238830566407	-752.0034179687501	-314.7278747558594	294.7348327636719	-792.2493286132815	-393.2405700683595	121.6255187988282	-749.2701416015626	-367.5491333007813	127.0489959716797	-839.2986450195315	-458.1441040039064	94.39299774169923	-801.8381347656252	-235.7383422851563	62.05293655395509	-797.2307128906252	-240.0726013183594	60.9629249572754	-759.2468872070314	-259.5518188476563	43.02943420410157	-711.3207397460939	-331.4239807128907	1768.619750976563	-1004.806640625	
201	1	-169.1658782958985	1833.145263671875	-936.147888183594	-339.2288513183594	1765.09423828125	-859.9069824218752	-415.5222167968751	1622.769165039063	-940.061706542969	-438.1006469726564	1282.396362304688	-937.1585083007815	-257.1811523437501	1558.68017578125	-940.648132324219	-297.0211791992188	1577.130615234375	-1139.023803710938	-303.5399475097657	1353.814453125	-1235.443115234375	-263.0546875000001	1332.597290039063	-1218.359619140625	-296.9733581542969	1284.871459960938	-1239.325317382813	-282.7405395507813	1223.552734375	-1237.783081054688	-337.6581115722657	1209.403930664063	-1188.185302734375	-175.9378204345703	948.5942993164065	-1148.894409179688	-202.8966064453126	938.0283813476565	-1224.9541015625	-128.3707733154297	870.557800292969	-1167.581665039063	-280.5755310058594	1568.787109375	-746.3774414062501	-284.5773620605469	1351.399658203125	-642.5764770507814	-242.9432830810547	1333.0927734375	-658.4398193359376	-271.9657897949219	1282.693725585938	-638.6727905273439	-256.3360595703126	1220.227661132813	-639.5944213867189	-302.6944274902344	1197.523071289063	-701.5195312500001	-154.7759857177735	947.688171386719	-682.0582885742189	-181.9661407470703	940.793884277344	-606.7401733398439	-124.7757339477539	857.2496337890627	-661.5742187500001	-257.4205932617188	1066.780029296875	-1069.492919921875	-254.9442901611329	1097.407592773438	-785.5054931640627	-452.2826538085939	1177.869750976563	-933.6995849609377	-457.2364807128907	1147.636352539063	-962.3550415039065	-461.4613037109376	1147.0048828125	-906.5989990234377	-336.7103881835938	860.5397949218752	-1126.169311523438	-310.4211730957032	780.5268554687502	-1124.383666992188	-260.7649841308594	780.4843750000002	-1120.105590820313	-339.7722473144532	730.0416259765626	-1106.346801757813	-317.9308166503907	583.1211547851564	-1086.445190429688	-301.9177551269532	558.5076904296876	-954.1450195312502	-289.5941772460938	358.1006164550782	-1024.281982421875	-323.1451721191407	315.8738403320313	-1096.826782226563	-292.2241210937501	311.5019836425782	-1062.380249023438	-300.9064331054688	233.0469512939454	-1034.177856445313	-363.0723266601563	116.1705017089844	-1079.978759765625	-418.9794006347657	85.97312164306642	-1031.179077148438	-211.0009460449219	56.89259719848634	-1003.441040039063	-204.1492462158204	57.18618774414064	-1045.556518554688	-334.5794982910157	127.0045700073242	-995.7505493164065	-346.9620056152344	760.8328247070314	-734.4393920898439	-310.5419921875001	704.9905395507814	-731.4140014648439	-276.6257629394532	705.2571411132814	-734.3833007812501	-337.2061462402344	629.1663208007814	-747.6258544921876	-331.0332336425782	561.4112548828126	-747.5084228515626	-297.0606384277344	545.5415649414064	-873.7678222656252	-288.8287963867188	421.6851501464845	-765.1981811523439	-357.0119934082032	346.6283569335938	-730.8881225585939	-314.7097778320313	339.3589172363282	-751.9202270507814	-314.7281188964844	294.7493286132813	-792.1070556640627	-393.3060913085939	121.6297149658203	-749.2484741210939	-367.4097290039063	127.0116043090821	-839.2020263671877	-458.175506591797	94.40261840820314	-801.8200683593752	-235.8476562500001	61.91651535034181	-797.1939697265627	-240.1236724853516	60.88035964965822	-759.2471923828126	-259.5520629882813	43.04534912109376	-711.2756958007814	-333.1185302734376	1768.793579101563	-1004.815551757813	
202	1.005	-171.4684753417969	1834.104858398438	-936.0638427734377	-340.6973266601563	1765.399291992188	-859.5344848632815	-416.3807983398439	1622.710693359375	-939.972351074219	-438.6456909179689	1282.032592773438	-937.034118652344	-257.9959411621094	1558.787841796875	-940.4914550781252	-297.2465515136719	1577.307373046875	-1138.715698242188	-300.9459228515626	1354.502197265625	-1235.558227539063	-260.5018310546876	1333.654174804688	-1218.026733398438	-293.6600646972657	1285.427856445313	-1239.502197265625	-279.4979248046876	1224.118286132813	-1237.9638671875	-334.0910034179688	1209.287475585938	-1188.936279296875	-169.4494781494141	950.1765136718752	-1148.442260742188	-195.6418762207032	939.5816650390627	-1224.807373046875	-121.1351013183594	872.8216552734377	-1166.491821289063	-280.8966674804688	1568.75048828125	-746.5275268554689	-282.0088806152344	1351.481323242188	-643.1887207031251	-240.1036224365235	1333.775390625	-659.0109863281251	-268.1584167480469	1283.158203125	-639.0844116210939	-251.8618774414063	1221.065673828125	-639.9125366210939	-298.3008728027344	1197.497314453125	-701.6832885742189	-148.2760620117188	949.0523681640627	-682.4644165039064	-174.3930969238282	942.6459960937502	-606.6661376953126	-118.0985794067383	858.361755371094	-662.1110229492189	-257.5336608886719	1066.91943359375	-1069.186279296875	-255.0923919677735	1097.456909179688	-785.2742919921877	-452.4424133300782	1177.859741210938	-933.5449829101565	-457.405975341797	1147.499633789063	-962.1135864257815	-461.7397460937501	1146.867797851563	-906.3406982421877	-335.6548767089844	860.2497558593752	-1125.474487304688	-310.1619567871094	780.5505371093752	-1124.023193359375	-260.7077941894532	780.503845214844	-1119.965942382813	-339.7055664062501	730.1135864257814	-1106.212036132813	-317.7229919433594	583.2183837890626	-1086.388061523438	-301.4864807128907	558.5124511718751	-954.1060180664065	-289.0480957031251	357.8321533203126	-1024.141723632813	-322.2536010742188	315.7000732421876	-1096.644653320313	-291.8122558593751	312.0420532226563	-1062.274169921875	-300.7886657714844	233.0561218261719	-1034.169921875	-363.0791625976563	116.2865982055664	-1079.941528320313	-418.968963623047	85.95162200927736	-1031.213745117188	-211.017318725586	56.8722496032715	-1003.466552734375	-204.1042175292969	57.23519897460939	-1045.542724609375	-334.5743713378907	127.0066299438477	-995.7502441406252	-346.8943786621094	760.8793945312501	-734.5415039062501	-310.6503295898438	705.0282592773439	-731.2101440429689	-276.7197875976563	705.3803710937501	-734.1723632812501	-337.3131103515626	629.1347656250001	-747.4989013671876	-331.1030883789063	561.4091796875001	-747.3749389648439	-297.1198120117188	545.5264282226564	-873.5567016601565	-288.6533813476563	421.5538330078126	-764.9857177734376	-357.1075439453126	346.6681823730469	-730.7789916992189	-314.7410583496094	339.3709411621094	-751.8085937500001	-314.6954345703126	294.7466125488282	-791.8792114257815	-393.3402404785157	121.5791473388672	-749.2254638671876	-367.6857299804688	127.0200500488282	-839.1591796875002	-458.1730041503907	94.40125274658205	-801.8418579101565	-235.7404785156251	62.04025650024415	-797.214294433594	-240.1306915283204	60.89620590209962	-759.2098388671876	-259.5082702636719	43.06019592285157	-711.2333984375001	-335.1953735351563	1768.30810546875	-1004.557739257813	
